<?xml version="1.0" ?><svg width="512px" height="512px" viewBox="0 0 512 512" id="Layer_1" style="enable-background:new 0 0 512 512;" version="1.1" xml:space="preserve" xmlns="http://www.w3.org/2000/svg" xmlns:xlink="http://www.w3.org/1999/xlink"><style type="text/css">
	.st0{fill:#2B79C2;}
	.st1{fill:#3B4652;}
</style><g><path class="st0" d="M480.6,63.4c-1.2-3.7-5.2-5.6-8.9-4.4c-3.7,1.2-5.6,5.2-4.4,8.9c7.8,23,11.8,47.1,11.8,71.6   c0,34.7-7.8,67.9-23.1,98.8c-1.7,3.5-0.3,7.7,3.2,9.4c1,0.5,2.1,0.7,3.1,0.7c2.6,0,5.1-1.4,6.3-3.9c16.3-32.8,24.5-68.1,24.5-105   C493.1,113.5,488.9,87.9,480.6,63.4z"/><path class="st0" d="M32.9,139.5c0-24.5,4-48.6,11.8-71.6c1.2-3.7-0.7-7.6-4.4-8.9c-3.7-1.2-7.6,0.7-8.9,4.4   c-8.3,24.5-12.5,50.1-12.5,76.1c0,36.8,8.3,72.1,24.5,105c1.2,2.5,3.7,3.9,6.3,3.9c1,0,2.1-0.2,3.1-0.7c3.5-1.7,4.9-5.9,3.2-9.4   C40.6,207.4,32.9,174.2,32.9,139.5z"/><path class="st0" d="M98.7,224.2c1,0,2.1-0.2,3.1-0.7c3.5-1.7,4.9-5.9,3.2-9.4c-11.6-23.3-17.4-48.4-17.4-74.6   c0-18.5,3-36.7,8.9-54.1c1.2-3.7-0.7-7.6-4.4-8.9c-3.7-1.2-7.6,0.7-8.9,4.4c-6.4,18.8-9.6,38.5-9.6,58.6c0,28.3,6.3,55.5,18.9,80.8   C93.7,222.8,96.1,224.2,98.7,224.2z"/><path class="st0" d="M419.9,76.6c-3.7,1.2-5.6,5.2-4.4,8.9c5.9,17.4,8.9,35.6,8.9,54.1c0,26.1-5.9,51.2-17.4,74.6   c-1.7,3.5-0.3,7.7,3.2,9.4c1,0.5,2.1,0.7,3.1,0.7c2.6,0,5.1-1.4,6.3-3.9c12.5-25.3,18.9-52.4,18.9-80.8c0-20-3.2-39.7-9.6-58.6   C427.5,77.3,423.6,75.4,419.9,76.6z"/><path class="st0" d="M361.1,199.2c1,0.5,2.1,0.7,3.1,0.7c2.6,0,5.1-1.4,6.3-3.9c8.8-17.7,13.2-36.7,13.2-56.5c0-14-2.3-27.8-6.7-41   c-1.2-3.7-5.2-5.6-8.9-4.4c-3.7,1.2-5.6,5.2-4.4,8.9c4,11.7,6,24,6,36.5c0,17.7-4,34.6-11.8,50.3   C356.2,193.3,357.7,197.5,361.1,199.2z"/><path class="st0" d="M147.8,200c1,0,2.1-0.2,3.1-0.7c3.5-1.7,4.9-5.9,3.2-9.4c-7.8-15.7-11.8-32.7-11.8-50.3c0-12.5,2-24.8,6-36.5   c1.2-3.7-0.7-7.6-4.4-8.9c-3.7-1.2-7.6,0.7-8.9,4.4c-4.5,13.2-6.7,27-6.7,41c0,19.8,4.4,38.9,13.2,56.5   C142.7,198.5,145.2,200,147.8,200z"/><path class="st1" d="M414.2,439.3h-36.5c-3.5-61.7-52.9-111.1-114.6-114.6V205.2c11.5-1.2,22.1-5.4,31.1-11.7   c8.9-6.3,16.2-14.8,21.1-24.7c4.4-8.8,6.8-18.7,6.8-29.2c0-7.4-1.2-14.6-3.5-21.2C309.7,92.3,285,73.5,256,73.5   s-53.7,18.8-62.5,44.8c-2.3,6.6-3.5,13.8-3.5,21.2c0,10.5,2.4,20.4,6.8,29.2c4.9,9.9,12.2,18.4,21.1,24.7   c9,6.4,19.6,10.5,31.2,11.8v119.5c-61.7,3.5-111.1,52.9-114.6,114.6H97.9c-3.9,0-7,3.1-7,7s3.1,7,7,7h316.3c3.9,0,7-3.1,7-7   S418,439.3,414.2,439.3z M230,152.4c-2-4-3-8.3-3-12.8c0-3.2,0.5-6.3,1.5-9.3c4-11.8,15-19.7,27.5-19.7s23.5,7.9,27.5,19.7   c1,3,1.5,6.1,1.5,9.3c0,4.5-1,8.8-3,12.8c-2.2,4.4-5.4,8.2-9.3,11c-4.9,3.5-10.7,5.3-16.7,5.3s-11.8-1.8-16.7-5.3   C235.3,160.5,232.1,156.7,230,152.4z"/></g></svg>