<?xml version="1.0" encoding="UTF-8" standalone="no"?>
<!-- Created with Inkscape (http://www.inkscape.org/) -->

<svg
   xmlns:dc="http://purl.org/dc/elements/1.1/"
   xmlns:cc="http://creativecommons.org/ns#"
   xmlns:rdf="http://www.w3.org/1999/02/22-rdf-syntax-ns#"
   xmlns:svg="http://www.w3.org/2000/svg"
   xmlns="http://www.w3.org/2000/svg"
   xmlns:sodipodi="http://sodipodi.sourceforge.net/DTD/sodipodi-0.dtd"
   xmlns:inkscape="http://www.inkscape.org/namespaces/inkscape"
   id="svg2"
   version="1.1"
   inkscape:version="0.91 r13725"
   width="302.83594"
   height="302.83594"
   viewBox="0 0 302.83594 302.83594"
   sodipodi:docname="Epicenter_map_sign_by_Juhele.svg"
   inkscape:export-filename="/media/sdb1/_GRAFIKA/2017_OCAL/Missile_camera/Epicenter_map_sign_by_Juhele.png"
   inkscape:export-xdpi="152.16159"
   inkscape:export-ydpi="152.16159">
  <title
     id="title7791">Epicenter map symbol / sign</title>
  <metadata
     id="metadata8">
    <rdf:RDF>
      <cc:Work
         rdf:about="">
        <dc:format>image/svg+xml</dc:format>
        <dc:type
           rdf:resource="http://purl.org/dc/dcmitype/StillImage" />
        <dc:title>Epicenter map symbol / sign</dc:title>
        <dc:subject>
          <rdf:Bag>
            <rdf:li>earthquake</rdf:li>
            <rdf:li>disaster</rdf:li>
            <rdf:li>epicenter</rdf:li>
            <rdf:li>epicentre</rdf:li>
            <rdf:li>circle</rdf:li>
            <rdf:li>concentric</rdf:li>
            <rdf:li>mark</rdf:li>
            <rdf:li>symbol</rdf:li>
            <rdf:li>map</rdf:li>
            <rdf:li>mapping</rdf:li>
          </rdf:Bag>
        </dc:subject>
        <dc:description>Simple concentric circles map sign used to mark an earthquake epicenter</dc:description>
        <cc:license
           rdf:resource="http://creativecommons.org/publicdomain/zero/1.0/" />
        <dc:creator>
          <cc:Agent>
            <dc:title>Jan Helebrant</dc:title>
          </cc:Agent>
        </dc:creator>
        <dc:rights>
          <cc:Agent>
            <dc:title>Jan Helebrant</dc:title>
          </cc:Agent>
        </dc:rights>
        <dc:publisher>
          <cc:Agent>
            <dc:title>Jan Helebrant</dc:title>
          </cc:Agent>
        </dc:publisher>
      </cc:Work>
      <cc:License
         rdf:about="http://creativecommons.org/publicdomain/zero/1.0/">
        <cc:permits
           rdf:resource="http://creativecommons.org/ns#Reproduction" />
        <cc:permits
           rdf:resource="http://creativecommons.org/ns#Distribution" />
        <cc:permits
           rdf:resource="http://creativecommons.org/ns#DerivativeWorks" />
      </cc:License>
    </rdf:RDF>
  </metadata>
  <defs
     id="defs6" />
  <sodipodi:namedview
     pagecolor="#ffffff"
     bordercolor="#666666"
     borderopacity="1"
     objecttolerance="10"
     gridtolerance="10"
     guidetolerance="10"
     inkscape:pageopacity="0"
     inkscape:pageshadow="2"
     inkscape:window-width="1920"
     inkscape:window-height="1125"
     id="namedview4"
     showgrid="false"
     inkscape:zoom="0.71830983"
     inkscape:cx="-72.287923"
     inkscape:cy="188.71783"
     inkscape:window-x="0"
     inkscape:window-y="0"
     inkscape:window-maximized="1"
     inkscape:current-layer="svg2"
     fit-margin-top="5"
     fit-margin-left="5"
     fit-margin-right="5"
     fit-margin-bottom="5"
     showguides="false" />
  <g
     id="g7783"
     transform="translate(-104.58203,-104.58203)">
    <path
       id="path6947"
       d="m 271,256 a 15,15 0 0 1 -15,15 15,15 0 0 1 -15,-15 15,15 0 0 1 15,-15 15,15 0 0 1 15,15 z"
       style="opacity:1;fill:#ff0000;fill-opacity:1;stroke:none;stroke-width:8;stroke-linecap:round;stroke-linejoin:miter;stroke-miterlimit:4;stroke-dasharray:none;stroke-dashoffset:0;stroke-opacity:1"
       inkscape:connector-curvature="0" />
    <path
       inkscape:connector-curvature="0"
       id="circle7761"
       d="m 256,139.28906 c -64.43944,0 -116.71094,52.2715 -116.71094,116.71094 0,64.43944 52.2715,116.71094 116.71094,116.71094 64.43944,0 116.71094,-52.2715 116.71094,-116.71094 0,-64.43944 -52.2715,-116.71094 -116.71094,-116.71094 z m 0,3 c 62.81812,0 113.71094,50.89282 113.71094,113.71094 0,62.81812 -50.89282,113.71094 -113.71094,113.71094 -62.81812,0 -113.71094,-50.89282 -113.71094,-113.71094 0,-62.81812 50.89282,-113.71094 113.71094,-113.71094 z"
       style="color:#000000;font-style:normal;font-variant:normal;font-weight:normal;font-stretch:normal;font-size:medium;line-height:normal;font-family:sans-serif;text-indent:0;text-align:start;text-decoration:none;text-decoration-line:none;text-decoration-style:solid;text-decoration-color:#000000;letter-spacing:normal;word-spacing:normal;text-transform:none;direction:ltr;block-progression:tb;writing-mode:lr-tb;baseline-shift:baseline;text-anchor:start;white-space:normal;clip-rule:nonzero;display:inline;overflow:visible;visibility:visible;opacity:1;isolation:auto;mix-blend-mode:normal;color-interpolation:sRGB;color-interpolation-filters:linearRGB;solid-color:#000000;solid-opacity:1;fill:#ff0000;fill-opacity:0.55474453;fill-rule:nonzero;stroke:none;stroke-width:3;stroke-linecap:round;stroke-linejoin:miter;stroke-miterlimit:4;stroke-dasharray:none;stroke-dashoffset:0;stroke-opacity:1;color-rendering:auto;image-rendering:auto;shape-rendering:auto;text-rendering:auto;enable-background:accumulate" />
    <path
       inkscape:connector-curvature="0"
       id="circle7765"
       d="m 256,214.26562 c -22.99636,0 -41.73438,18.73802 -41.73438,41.73438 0,22.99636 18.73802,41.73438 41.73438,41.73438 22.99636,0 41.73438,-18.73802 41.73438,-41.73438 0,-22.99636 -18.73802,-41.73437 -41.73438,-41.73438 z m 0,9 c 18.1324,0 32.73438,14.60198 32.73438,32.73438 0,18.1324 -14.60198,32.73438 -32.73438,32.73438 -18.1324,0 -32.73438,-14.60198 -32.73438,-32.73438 0,-18.1324 14.60198,-32.73437 32.73438,-32.73438 z"
       style="color:#000000;font-style:normal;font-variant:normal;font-weight:normal;font-stretch:normal;font-size:medium;line-height:normal;font-family:sans-serif;text-indent:0;text-align:start;text-decoration:none;text-decoration-line:none;text-decoration-style:solid;text-decoration-color:#000000;letter-spacing:normal;word-spacing:normal;text-transform:none;direction:ltr;block-progression:tb;writing-mode:lr-tb;baseline-shift:baseline;text-anchor:start;white-space:normal;clip-rule:nonzero;display:inline;overflow:visible;visibility:visible;opacity:1;isolation:auto;mix-blend-mode:normal;color-interpolation:sRGB;color-interpolation-filters:linearRGB;solid-color:#000000;solid-opacity:1;fill:#ff0000;fill-opacity:1;fill-rule:nonzero;stroke:none;stroke-width:9;stroke-linecap:round;stroke-linejoin:miter;stroke-miterlimit:4;stroke-dasharray:none;stroke-dashoffset:0;stroke-opacity:1;color-rendering:auto;image-rendering:auto;shape-rendering:auto;text-rendering:auto;enable-background:accumulate" />
    <path
       inkscape:connector-curvature="0"
       id="circle7767"
       d="m 256,189.67773 c -36.59352,0 -66.32227,29.72875 -66.32227,66.32227 0,36.59352 29.72875,66.32227 66.32227,66.32227 36.59352,0 66.32227,-29.72875 66.32227,-66.32227 0,-36.59352 -29.72875,-66.32227 -66.32227,-66.32227 z m 0,6 c 33.35088,0 60.32227,26.97139 60.32227,60.32227 0,33.35088 -26.97139,60.32227 -60.32227,60.32227 -33.35088,0 -60.32227,-26.97139 -60.32227,-60.32227 0,-33.35088 26.97139,-60.32227 60.32227,-60.32227 z"
       style="color:#000000;font-style:normal;font-variant:normal;font-weight:normal;font-stretch:normal;font-size:medium;line-height:normal;font-family:sans-serif;text-indent:0;text-align:start;text-decoration:none;text-decoration-line:none;text-decoration-style:solid;text-decoration-color:#000000;letter-spacing:normal;word-spacing:normal;text-transform:none;direction:ltr;block-progression:tb;writing-mode:lr-tb;baseline-shift:baseline;text-anchor:start;white-space:normal;clip-rule:nonzero;display:inline;overflow:visible;visibility:visible;opacity:1;isolation:auto;mix-blend-mode:normal;color-interpolation:sRGB;color-interpolation-filters:linearRGB;solid-color:#000000;solid-opacity:1;fill:#ff0000;fill-opacity:1;fill-rule:nonzero;stroke:none;stroke-width:6;stroke-linecap:round;stroke-linejoin:miter;stroke-miterlimit:4;stroke-dasharray:none;stroke-dashoffset:0;stroke-opacity:1;color-rendering:auto;image-rendering:auto;shape-rendering:auto;text-rendering:auto;enable-background:accumulate" />
    <path
       inkscape:connector-curvature="0"
       id="circle7769"
       d="m 256,166.16406 c -49.59132,0 -89.83594,40.24462 -89.83594,89.83594 0,49.59132 40.24462,89.83594 89.83594,89.83594 49.59132,0 89.83594,-40.24462 89.83594,-89.83594 0,-49.59132 -40.24462,-89.83594 -89.83594,-89.83594 z m 0,4 c 47.42956,0 85.83594,38.40638 85.83594,85.83594 0,47.42956 -38.40638,85.83594 -85.83594,85.83594 -47.42956,0 -85.83594,-38.40638 -85.83594,-85.83594 0,-47.42956 38.40638,-85.83594 85.83594,-85.83594 z"
       style="color:#000000;font-style:normal;font-variant:normal;font-weight:normal;font-stretch:normal;font-size:medium;line-height:normal;font-family:sans-serif;text-indent:0;text-align:start;text-decoration:none;text-decoration-line:none;text-decoration-style:solid;text-decoration-color:#000000;letter-spacing:normal;word-spacing:normal;text-transform:none;direction:ltr;block-progression:tb;writing-mode:lr-tb;baseline-shift:baseline;text-anchor:start;white-space:normal;clip-rule:nonzero;display:inline;overflow:visible;visibility:visible;opacity:1;isolation:auto;mix-blend-mode:normal;color-interpolation:sRGB;color-interpolation-filters:linearRGB;solid-color:#000000;solid-opacity:1;fill:#ff0000;fill-opacity:1;fill-rule:nonzero;stroke:none;stroke-width:4;stroke-linecap:round;stroke-linejoin:miter;stroke-miterlimit:4;stroke-dasharray:none;stroke-dashoffset:0;stroke-opacity:1;color-rendering:auto;image-rendering:auto;shape-rendering:auto;text-rendering:auto;enable-background:accumulate" />
    <path
       inkscape:connector-curvature="0"
       id="circle7771"
       d="m 256,109.58203 c -80.85286,0 -146.41797,65.56511 -146.41797,146.41797 0,80.85286 65.56511,146.41797 146.41797,146.41797 80.85286,0 146.41797,-65.56511 146.41797,-146.41797 0,-80.85286 -65.56511,-146.41797 -146.41797,-146.41797 z m 0,2 c 79.77198,0 144.41797,64.64599 144.41797,144.41797 0,79.77198 -64.64599,144.41797 -144.41797,144.41797 -79.77198,0 -144.41797,-64.64599 -144.41797,-144.41797 0,-79.77198 64.64599,-144.41797 144.41797,-144.41797 z"
       style="color:#000000;font-style:normal;font-variant:normal;font-weight:normal;font-stretch:normal;font-size:medium;line-height:normal;font-family:sans-serif;text-indent:0;text-align:start;text-decoration:none;text-decoration-line:none;text-decoration-style:solid;text-decoration-color:#000000;letter-spacing:normal;word-spacing:normal;text-transform:none;direction:ltr;block-progression:tb;writing-mode:lr-tb;baseline-shift:baseline;text-anchor:start;white-space:normal;clip-rule:nonzero;display:inline;overflow:visible;visibility:visible;opacity:1;isolation:auto;mix-blend-mode:normal;color-interpolation:sRGB;color-interpolation-filters:linearRGB;solid-color:#000000;solid-opacity:1;fill:#ff0000;fill-opacity:0.35766422;fill-rule:nonzero;stroke:none;stroke-width:2;stroke-linecap:round;stroke-linejoin:miter;stroke-miterlimit:4;stroke-dasharray:none;stroke-dashoffset:0;stroke-opacity:1;color-rendering:auto;image-rendering:auto;shape-rendering:auto;text-rendering:auto;enable-background:accumulate" />
  </g>
</svg>
